<svg height="472pt" viewBox="0 -13 472 472" width="472pt" xmlns="http://www.w3.org/2000/svg" xmlns:xlink="http://www.w3.org/1999/xlink"><linearGradient id="a"><stop offset="0" stop-color="#00efd1"/><stop offset="1" stop-color="#00acea"/></linearGradient><linearGradient id="b" gradientUnits="userSpaceOnUse" x1="236.002" x2="236.002" xlink:href="#a" y1="-15.233" y2="449.823"/><linearGradient id="c" gradientUnits="userSpaceOnUse" x1="123.31" x2="123.31" xlink:href="#a" y1="-15.233" y2="449.823"/><linearGradient id="d" gradientUnits="userSpaceOnUse" x1="191.448" x2="191.448" xlink:href="#a" y1="-15.233" y2="449.823"/><linearGradient id="e" gradientUnits="userSpaceOnUse" x1="55.172" x2="55.172" xlink:href="#a" y1="-15.233" y2="449.823"/><linearGradient id="f" gradientUnits="userSpaceOnUse" x1="236" x2="236" xlink:href="#a" y1="-15.233" y2="449.823"/><linearGradient id="g" gradientUnits="userSpaceOnUse" x1="196.5" x2="196.5" xlink:href="#a" y1="-15.233" y2="449.823"/><linearGradient id="h" gradientUnits="userSpaceOnUse" x1="274.5" x2="274.5" xlink:href="#a" y1="-15.233" y2="449.823"/><path d="m472 105.921875v-64.65625c0-22.601563-17.699219-41.265625-39.453125-41.265625h-393.097656c-21.75 0-39.449219 18.664062-39.449219 41.265625v316.917969c0 22.601562 17.699219 40.816406 39.449219 40.816406h68.074219c-.199219 2-.523438 4.285156-.523438 6.378906v32.34375c.078125 4.515625 3.703125 8.164063 8.214844 8.277344h241.570312c4.511719-.113281 8.136719-3.761719 8.214844-8.277344v-32.34375c0-2.101562-.320312-4.378906-.523438-6.378906h68.070313c21.753906 0 39.453125-18.214844 39.453125-40.816406v-252.109375c0-.027344 0-.050781 0-.078125 0-.023438 0-.050782 0-.074219zm-432.550781-89.921875h393.097656c12.929687 0 23.453125 11.484375 23.453125 25.265625v56.734375h-440v-56.734375c0-13.78125 10.519531-25.265625 23.449219-25.265625zm249.550781 414h-106v-27h106zm60 0h-44v-35.335938c.046875-2.058593-.757812-4.046874-2.21875-5.496093-1.464844-1.449219-3.460938-2.234375-5.523438-2.167969h-122.515624c-2.0625-.066406-4.058594.71875-5.523438 2.167969-1.460938 1.449219-2.265625 3.4375-2.21875 5.496093v35.335938h-44v-24.621094c0-25.621094 21.0625-46.378906 46.683594-46.378906h132.632812c20.878906.007812 39.195313 13.933594 44.785156 34.054688.054688.246093.230469.464843.3125.699218 1.019532 3.792969 1.550782 7.699219 1.585938 11.625zm-113-276.066406c-5.140625 0-9.308594-4.167969-9.308594-9.3125 0-5.140625 4.167969-9.308594 9.308594-9.308594s9.308594 4.167969 9.308594 9.308594c-.003906 5.140625-4.167969 9.304687-9.308594 9.3125zm89 39.066406v121h-178v-121zm-53 137v13h-72v-13zm160.546875 53h-71.855469c-9.441406-24.019531-32.566406-39.867188-58.375-40h-14.316406v-13h45.054688c4.417968 0 7.945312-4 7.945312-8.417969v-44.261719c12.859375-3.394531 21.820312-15.027343 21.820312-28.328124 0-13.300782-8.960937-24.933594-21.820312-28.332032v-35.460937c.042969-4.445313-3.5-8.101563-7.945312-8.199219h-90.054688v-8.058594c11.929688-3.433594 19.605469-15.011718 18.128906-27.335937-1.476562-12.324219-11.671875-21.757813-24.074218-22.273438-12.402344-.519531-23.347657 8.035157-25.847657 20.191407-2.496093 12.160156 4.191407 24.335937 15.792969 28.75v8.726562h-88.054688c-4.445312.097656-7.988281 3.753906-7.945312 8.199219v35.464843c-12.859375 3.398438-21.820312 15.03125-21.820312 28.332032 0 13.300781 8.960937 24.933594 21.820312 28.328125v44.261719c0 4.414062 3.527344 8.414062 7.945312 8.414062h45.054688v13h-14.316406c-25.808594.132812-48.933594 15.980469-58.375 40h-71.859375c-12.929688 0-23.449219-11.039062-23.449219-24.816406v-244.183594h440v244.183594c0 13.777344-10.523438 24.816406-23.453125 24.816406zm-91.546875-145c4 2.398438 5.816406 6.425781 5.816406 10.988281s-1.816406 8.59375-5.816406 10.992188zm-210 21.980469c-4-2.402344-5.816406-6.429688-5.816406-10.988281 0-4.5625 1.816406-8.59375 5.816406-10.992188zm0 0" fill="url(#b)"/><path d="m123.308594 87.757812c15.972656 0 28.96875-13.457031 28.96875-29.996093 0-16.539063-12.996094-29.992188-28.96875-29.992188-15.96875 0-28.964844 13.453125-28.964844 29.992188 0 16.539062 12.996094 29.996093 28.964844 29.996093zm0-43.988281c7.152344 0 12.96875 6.277344 12.96875 13.992188 0 7.714843-5.816406 13.996093-12.96875 13.996093-7.148438 0-12.964844-6.277343-12.964844-13.996093 0-7.714844 5.816406-13.992188 12.964844-13.992188zm0 0" fill="url(#c)"/><path d="m191.449219 87.757812c15.972656 0 28.964843-13.457031 28.964843-29.996093 0-16.539063-12.992187-29.992188-28.964843-29.992188-15.972657 0-28.96875 13.453125-28.96875 29.992188 0 16.539062 12.996093 29.996093 28.96875 29.996093zm0-43.988281c7.148437 0 12.964843 6.277344 12.964843 13.992188 0 7.714843-5.816406 13.996093-12.964843 13.996093-7.152344 0-12.96875-6.277343-12.96875-13.996093 0-7.714844 5.820312-13.992188 12.96875-13.992188zm0 0" fill="url(#d)"/><path d="m55.171875 87.757812c15.972656 0 28.964844-13.457031 28.964844-29.996093 0-16.539063-12.992188-29.992188-28.964844-29.992188s-28.964844 13.453125-28.964844 29.992188c0 16.539062 12.992188 29.996093 28.964844 29.996093zm0-43.988281c7.148437 0 12.964844 6.277344 12.964844 13.992188 0 7.714843-5.816407 13.996093-12.964844 13.996093s-12.964844-6.277343-12.964844-13.996093c0-7.714844 5.816407-13.992188 12.964844-13.992188zm0 0" fill="url(#e)"/><path d="m292 271c0-4.417969-3.582031-8-8-8h-96c-4.417969 0-8 3.582031-8 8v26c0 4.417969 3.582031 8 8 8h96c4.417969 0 8-3.582031 8-8zm-16 18h-80v-10h80zm0 0" fill="url(#f)"/><path d="m218 216c0-4.417969-3.582031-8-8-8h-27c-4.417969 0-8 3.582031-8 8v27c0 4.417969 3.582031 8 8 8h27c4.417969 0 8-3.582031 8-8zm-27 8h12v11h-12zm0 0" fill="url(#g)"/><path d="m296 216c0-4.417969-3.582031-8-8-8h-27c-4.417969 0-8 3.582031-8 8v27c0 4.417969 3.582031 8 8 8h27c4.417969 0 8-3.582031 8-8zm-27 8h12v11h-12zm0 0" fill="url(#h)"/></svg>