<?xml version="1.0"?>
<svg xmlns="http://www.w3.org/2000/svg" xmlns:xlink="http://www.w3.org/1999/xlink" viewBox="0 0 64 64" width="512" height="512"><defs><linearGradient id="New_Gradient_Swatch_2" x1="32" y1="0.937" x2="32" y2="64.861" gradientUnits="userSpaceOnUse"><stop offset="0" stop-color="#fc5c7d"/><stop offset="0.129" stop-color="#f35e85"/><stop offset="0.343" stop-color="#d9659b"/><stop offset="0.616" stop-color="#b070bf"/><stop offset="0.934" stop-color="#777ff0"/><stop offset="1" stop-color="#6a82fb"/></linearGradient><linearGradient id="New_Gradient_Swatch_2-3" x1="14" y1="0.937" x2="14" y2="64.861" xlink:href="#New_Gradient_Swatch_2"/><linearGradient id="New_Gradient_Swatch_2-8" x1="50" y1="0.937" x2="50" y2="64.861" xlink:href="#New_Gradient_Swatch_2"/><linearGradient id="New_Gradient_Swatch_2-15" x1="20" y1="0.937" x2="20" y2="64.861" xlink:href="#New_Gradient_Swatch_2"/><linearGradient id="New_Gradient_Swatch_2-16" x1="24" y1="0.937" x2="24" y2="64.861" xlink:href="#New_Gradient_Swatch_2"/><linearGradient id="New_Gradient_Swatch_2-17" x1="28" y1="0.937" x2="28" y2="64.861" xlink:href="#New_Gradient_Swatch_2"/><linearGradient id="New_Gradient_Swatch_2-19" x1="36" y1="0.937" x2="36" y2="64.861" xlink:href="#New_Gradient_Swatch_2"/><linearGradient id="New_Gradient_Swatch_2-20" x1="40" y1="0.937" x2="40" y2="64.861" xlink:href="#New_Gradient_Swatch_2"/><linearGradient id="New_Gradient_Swatch_2-21" x1="44" y1="0.937" x2="44" y2="64.861" xlink:href="#New_Gradient_Swatch_2"/><linearGradient id="New_Gradient_Swatch_2-22" x1="3" y1="0.937" x2="3" y2="64.861" xlink:href="#New_Gradient_Swatch_2"/><linearGradient id="New_Gradient_Swatch_2-23" x1="57" y1="0.937" x2="57" y2="64.861" xlink:href="#New_Gradient_Swatch_2"/><linearGradient id="New_Gradient_Swatch_2-25" x1="6" y1="0.937" x2="6" y2="64.861" xlink:href="#New_Gradient_Swatch_2"/></defs><title>Tools-deign-program-Stationary-Service</title><g id="_001GradL" data-name="001GradL"><rect x="31" y="43" width="2" height="2" style="fill:url(#New_Gradient_Swatch_2)"/><path d="M54,6H10a4,4,0,0,0-4,4V45a4,4,0,0,0,4,4H24.612l-2.333,7H17a3,3,0,0,0-3,3,2.966,2.966,0,0,0,.184,1H9v2H47a3,3,0,0,0,0-6H41.721l-2.333-7H54a4,4,0,0,0,4-4V10A4,4,0,0,0,54,6ZM10,8H54a2,2,0,0,1,2,2V39H44.3l3.56-19.088a1,1,0,0,0-.8-1.167l-5.9-1.1a1,1,0,0,0-1.167.8L36.159,39H35.074l.71-9.937a3.807,3.807,0,0,0-1.008-2.854c-.06-.065-.135-.114-.2-.175A3.972,3.972,0,0,0,36,23c0-3.5-3.3-5.738-3.445-5.832a1,1,0,0,0-1.11,0C31.305,17.262,28,19.505,28,23a3.972,3.972,0,0,0,1.424,3.034c-.065.061-.14.11-.2.175a3.807,3.807,0,0,0-1.008,2.854L28.926,39h-1.3L25.171,23.438A1,1,0,0,0,25,23.013l-3.9-5.459a1,1,0,0,0-1.767.279l-2.027,6.4a1,1,0,0,0-.035.458L19.529,39H8V10A2,2,0,0,1,10,8ZM38.842,35.523l1.966.368.367-1.967-1.966-.367.366-1.966,1.967.367.366-1.967-1.966-.366.367-1.966,1.966.366.367-1.966-1.966-.367.366-1.965,1.967.367.366-1.967-1.966-.367.367-1.966,3.932.734L42.263,39h-4.07Zm-8.631-6.6a1.774,1.774,0,0,1,.476-1.35,1.836,1.836,0,0,1,2.625,0,1.771,1.771,0,0,1,.477,1.35L33.64,31H30.36ZM30,23a5.354,5.354,0,0,1,2-3.724A5.354,5.354,0,0,1,34,23a2,2,0,0,1-4,0Zm.931,16L30.5,33H33.5l-.428,6Zm-9.377,0L19.4,25.361l3.952-.624L25.6,39ZM19.7,23.29l.934-2.946,1.8,2.515ZM48,59a1,1,0,0,1-1,1H17a1,1,0,0,1,0-2H47A1,1,0,0,1,48,59Zm-8.388-3H24.388l2.333-7H37.279ZM54,47H10a2,2,0,0,1-2-2V41H56v4A2,2,0,0,1,54,47Z" style="fill:url(#New_Gradient_Swatch_2)"/><rect x="13" y="19" width="2" height="2" style="fill:url(#New_Gradient_Swatch_2-3)"/><rect x="13" y="23" width="2" height="2" style="fill:url(#New_Gradient_Swatch_2-3)"/><rect x="13" y="27" width="2" height="2" style="fill:url(#New_Gradient_Swatch_2-3)"/><rect x="13" y="31" width="2" height="2" style="fill:url(#New_Gradient_Swatch_2-3)"/><rect x="13" y="35" width="2" height="2" style="fill:url(#New_Gradient_Swatch_2-3)"/><rect x="49" y="19" width="2" height="2" style="fill:url(#New_Gradient_Swatch_2-8)"/><rect x="49" y="23" width="2" height="2" style="fill:url(#New_Gradient_Swatch_2-8)"/><rect x="49" y="27" width="2" height="2" style="fill:url(#New_Gradient_Swatch_2-8)"/><rect x="49" y="31" width="2" height="2" style="fill:url(#New_Gradient_Swatch_2-8)"/><rect x="49" y="35" width="2" height="2" style="fill:url(#New_Gradient_Swatch_2-8)"/><path d="M12,17h4a1,1,0,0,0,1-1V12a1,1,0,0,0-1-1H12a1,1,0,0,0-1,1v4A1,1,0,0,0,12,17Zm1-4h2v2H13Z" style="fill:url(#New_Gradient_Swatch_2-3)"/><path d="M48,17h4a1,1,0,0,0,1-1V12a1,1,0,0,0-1-1H48a1,1,0,0,0-1,1v4A1,1,0,0,0,48,17Zm1-4h2v2H49Z" style="fill:url(#New_Gradient_Swatch_2-8)"/><rect x="19" y="13" width="2" height="2" style="fill:url(#New_Gradient_Swatch_2-15)"/><rect x="23" y="13" width="2" height="2" style="fill:url(#New_Gradient_Swatch_2-16)"/><rect x="27" y="13" width="2" height="2" style="fill:url(#New_Gradient_Swatch_2-17)"/><rect x="31" y="13" width="2" height="2" style="fill:url(#New_Gradient_Swatch_2)"/><rect x="35" y="13" width="2" height="2" style="fill:url(#New_Gradient_Swatch_2-19)"/><rect x="39" y="13" width="2" height="2" style="fill:url(#New_Gradient_Swatch_2-20)"/><rect x="43" y="13" width="2" height="2" style="fill:url(#New_Gradient_Swatch_2-21)"/><rect x="2" y="22" width="2" height="23" style="fill:url(#New_Gradient_Swatch_2-22)"/><path d="M55,2H52V4h3a5.006,5.006,0,0,1,5,5V33h2V9A7.008,7.008,0,0,0,55,2Z" style="fill:url(#New_Gradient_Swatch_2-23)"/><rect x="2" y="18" width="2" height="2" style="fill:url(#New_Gradient_Swatch_2-22)"/><rect x="5" y="60" width="2" height="2" style="fill:url(#New_Gradient_Swatch_2-25)"/></g></svg>
