<?xml version="1.0" encoding="utf-8"?>
<!-- Generator: Adobe Illustrator 23.1.0, SVG Export Plug-In . SVG Version: 6.00 Build 0)  -->
<svg version="1.1" id="Layer_1" xmlns="http://www.w3.org/2000/svg" xmlns:xlink="http://www.w3.org/1999/xlink" x="0px" y="0px"
	 viewBox="0 0 392 392" style="enable-background:new 0 0 392 392;" xml:space="preserve">
<style type="text/css">
	.st0{filter:url(#Adobe_OpacityMaskFilter);}
	.st1{opacity:0.3;mask:url(#SVGID_1_);}
	.st2{fill:url(#SVGID_2_);}
	.st3{fill:url(#SVGID_3_);}
	.st4{fill:url(#SVGID_4_);}
	.st5{fill:url(#SVGID_5_);}
	.st6{fill:url(#SVGID_6_);}
	.st7{fill:#FFFFFF;}
	.st8{opacity:0.5;fill:#FFFFFF;}
	.st9{opacity:0.3;fill:#FFFFFF;}
	.st10{opacity:0.4;fill:#FFFFFF;}
	.st11{opacity:0.6;fill:#FFFFFF;}
</style>
<rect y="0" width="392" height="392"/>
<defs>
	<filter id="Adobe_OpacityMaskFilter" filterUnits="userSpaceOnUse" x="-128" y="-98.6" width="636.1" height="542.1">
		<feFlood  style="flood-color:white;flood-opacity:1" result="back"/>
		<feBlend  in="SourceGraphic" in2="back" mode="normal"/>
	</filter>
</defs>
<mask maskUnits="userSpaceOnUse" x="-128" y="-98.6" width="636.1" height="542.1" id="SVGID_1_">
	<g class="st0">
	</g>
</mask>
<g class="st1">
	<g>
		<linearGradient id="SVGID_2_" gradientUnits="userSpaceOnUse" x1="205.7646" y1="-3.1102" x2="205.7646" y2="389.4243">
			<stop  offset="0" style="stop-color:#776DFC"/>
			<stop  offset="0.4122" style="stop-color:#7C43D4"/>
			<stop  offset="1" style="stop-color:#830094"/>
		</linearGradient>
		<path class="st2" d="M454.1,431.4l-96-70l-103.4-37.7l-103.3-59.8L20.2,293.6L145,374.4l-0.3,0.2l-82.8,56.8L19.4,293.7l-116-51.9
			l0-0.5l146.2-54.3l-65.1-74.9l0.2-0.2l77-73.1L-34-30.7l0.3-0.4l96,70l-77.2,73.3l65.2,75.1l-146.3,54.3l115.5,51.7l131.8-29.9
			l0.1,0l103.4,59.8l103.4,37.7l0,0l96,70.1L454.1,431.4z M20,294.1l42.1,136.5l82-56.2L20,294.1z M508.1,128.1l-131.3-15.6l0.1-0.5
			l131.3,15.6L508.1,128.1z"/>
	</g>
	<g>
		<linearGradient id="SVGID_3_" gradientUnits="userSpaceOnUse" x1="140.1821" y1="-3.1102" x2="140.1821" y2="389.4243">
			<stop  offset="0" style="stop-color:#776DFC"/>
			<stop  offset="0.4122" style="stop-color:#7C43D4"/>
			<stop  offset="1" style="stop-color:#830094"/>
		</linearGradient>
		<path class="st3" d="M181.1,443.6l-36.8-69.1l0.4-0.2l36.8,69.1L181.1,443.6z M151.1,263.6L151.1,263.6L49.6,187.1l0.3-0.4
			l101.3,76.4l143.5-21.7l-103.7-54l-75-59.3l-131.3-15.7l0.1-0.5l131.4,15.7l0.1,0l75,59.3l104.3,54.4l-0.1,0.5L151.1,263.6z"/>
	</g>
	<g>
		<linearGradient id="SVGID_4_" gradientUnits="userSpaceOnUse" x1="188.9136" y1="-3.1102" x2="188.9136" y2="389.4243">
			<stop  offset="0" style="stop-color:#776DFC"/>
			<stop  offset="0.4122" style="stop-color:#7C43D4"/>
			<stop  offset="1" style="stop-color:#830094"/>
		</linearGradient>
		<path class="st4" d="M62.1,431.4l-96.2-70.2l0.2-0.2l53.4-67.6L49.8,187l0.1,0l66-59.2l-54.2-89l0.2-0.1L144.6-18l0.1,0.2
			l36.7,68.9L283,20.1l0.1,0.1L377,112l-0.1,0.4L264.2,132l-72.9,55.3l-39.6,76.3L144.8,374l109.8-50.8l40.7-82L412,293.4l-0.2,0.2
			l-53.5,67.7L283.1,413l-0.1-0.3l-28.3-88.9l-110.4,51l6.9-111.2l39.7-76.5l0,0l73.1-55.4l0.1,0l112.2-19.5l-93.4-91.4L181.2,51.7
			l-36.7-69L62.3,39l54.1,88.9l-0.2,0.1l-66.1,59.2L19.8,293.6l0,0l-53.3,67.4L62.4,431L62.1,431.4z M255.1,323.4l28.3,88.8
			l74.7-51.2l53.2-67.3l-115.6-51.7L255.1,323.4z"/>
	</g>
	<g>
		<linearGradient id="SVGID_5_" gradientUnits="userSpaceOnUse" x1="246.0168" y1="-3.1102" x2="246.0168" y2="389.4243">
			<stop  offset="0" style="stop-color:#776DFC"/>
			<stop  offset="0.4122" style="stop-color:#7C43D4"/>
			<stop  offset="1" style="stop-color:#830094"/>
		</linearGradient>
		<path class="st5" d="M295.2,241.6l-31.3-109.6l-147.8-3.9l-0.2-0.4l65.2-76.4l0.4,0.3l-64.8,76l147.6,3.9l0,0l177.7,55.3l-0.1,0.5
			l-177.4-55.2l31.2,109.3L295.2,241.6z M191.1,187.4H50v-0.5h141.1V187.4z M283.3,21.2l-0.1-0.3l-28.7-89.4l0.5-0.1l28.6,89.1
			l74.5-51.5l0.3,0.4L283.3,21.2z"/>
	</g>
	<g>
		<linearGradient id="SVGID_6_" gradientUnits="userSpaceOnUse" x1="163.2178" y1="-3.1102" x2="163.2178" y2="389.4243">
			<stop  offset="0" style="stop-color:#776DFC"/>
			<stop  offset="0.4122" style="stop-color:#7C43D4"/>
			<stop  offset="1" style="stop-color:#830094"/>
		</linearGradient>
		<path class="st6" d="M283.2,412.8l-138.7-38.2l0.1-0.5l138.7,38.2L283.2,412.8z M358,361.2l-62.9-119.8l0.3-0.1l146.2-54.3
			l-65.1-74.9l0.2-0.2l77-72.6L283.2,20.6l-18.8,111.2l-0.4,0.1l-82.7-80.3l-119-12.5L62,39.3l0-0.1l-170.8-18.4l0.1-0.5L61.8,38.7
			L19.4-98.4l0.5-0.1L62.3,38.7l119.1,12.5l0.1,0.1l82.5,80l18.8-110.8L144.5-17.4l0.1-0.5l138.4,38L454.3,39l0.1,0.4l-77.3,72.8
			l65.2,75.1l-0.3,0.1l-146.2,54.3L358.4,361L358,361.2z M49.9,187.4L-128,132l0.1-0.5l177.9,55.4L49.9,187.4z"/>
	</g>
</g>
<g>
	<circle class="st7" cx="376.8" cy="112.2" r="2.5"/>
	<circle class="st8" cx="264.1" cy="131.8" r="2.5"/>
	<circle class="st8" cx="295.5" cy="241.6" r="2.5"/>
	<circle class="st9" cx="358.2" cy="361.1" r="2.5"/>
	<circle class="st10" cx="254.8" cy="323.4" r="2.5"/>
	<circle class="st10" cx="151.4" cy="263.6" r="2.5"/>
	<circle class="st8" cx="144.6" cy="374.4" r="2.5"/>
	<circle class="st9" cx="19.6" cy="293.5" r="2.5"/>
	<circle class="st7" cx="50" cy="187.2" r="2.5"/>
	<circle class="st10" cx="62.2" cy="39.2" r="2.5"/>
	<circle class="st11" cx="181.3" cy="51.4" r="2.5"/>
	<circle class="st7" cx="283.2" cy="20.6" r="2.5"/>
	<circle class="st7" cx="116.1" cy="127.9" r="2.5"/>
	<circle class="st7" cx="191.1" cy="187.2" r="2.5"/>
</g>
</svg>
