<?xml version="1.0" encoding="utf-8"?>
<!-- Generator: Adobe Illustrator 24.2.0, SVG Export Plug-In . SVG Version: 6.00 Build 0)  -->
<svg version="1.1" id="Слой_1" xmlns="http://www.w3.org/2000/svg" xmlns:xlink="http://www.w3.org/1999/xlink" x="0px" y="0px"
	 viewBox="0 0 595.3 841.9" style="enable-background:new 0 0 595.3 841.9;" xml:space="preserve">
<style type="text/css">
	.st0{fill:none;}
	.st1{display:none;}
	.st2{display:inline;}
	.st3{fill:url(#SVGID_1_);}
	.st4{fill:url(#SVGID_2_);}
	.st5{fill:url(#SVGID_3_);}
	.st6{fill:url(#SVGID_4_);}
	.st7{fill:url(#SVGID_5_);}
	.st8{fill:url(#SVGID_6_);}
	.st9{fill:url(#SVGID_7_);}
	.st10{fill:url(#SVGID_8_);}
	.st11{fill:url(#SVGID_9_);}
	.st12{fill:url(#SVGID_10_);}
	.st13{fill:url(#SVGID_11_);}
	.st14{fill:url(#SVGID_12_);}
	.st15{fill:url(#SVGID_13_);}
	.st16{fill:url(#SVGID_14_);}
	.st17{fill:url(#SVGID_15_);}
	.st18{fill:url(#SVGID_16_);}
	.st19{fill:url(#SVGID_17_);}
	.st20{fill:url(#SVGID_18_);}
	.st21{fill:url(#SVGID_19_);}
	.st22{fill:none;stroke:#D7569C;stroke-width:5;stroke-miterlimit:10;}
</style>
<g id="Layer_2">
	<rect y="170" class="st0" width="595.3" height="521"/>
</g>
<g id="Layer_1" class="st1">
	<g class="st2">
		
			<linearGradient id="SVGID_1_" gradientUnits="userSpaceOnUse" x1="296.0937" y1="149.4625" x2="299.136" y2="702.1386" gradientTransform="matrix(1 0 0 -1 0 844)">
			<stop  offset="0" style="stop-color:#8F3F4F"/>
			<stop  offset="1" style="stop-color:#D65988"/>
		</linearGradient>
		<path class="st3" d="M297.6,697.8c-73.9,0-143.5-28.8-195.8-81.1S20.7,494.9,20.7,420.9c0-73.9,28.8-143.5,81.1-195.8
			S223.6,144,297.6,144s143.5,28.8,195.8,81.1s81.1,121.8,81.1,195.8c0,73.9-28.8,143.5-81.1,195.8S371.6,697.8,297.6,697.8z
			 M297.6,147.1c-151,0-273.8,122.8-273.8,273.8s122.8,273.8,273.8,273.8s273.8-122.8,273.8-273.8
			C571.5,269.9,448.6,147.1,297.6,147.1z"/>
		
			<linearGradient id="SVGID_2_" gradientUnits="userSpaceOnUse" x1="296.0338" y1="149.4628" x2="299.076" y2="702.1389" gradientTransform="matrix(1 0 0 -1 0 844)">
			<stop  offset="0" style="stop-color:#8F3F4F"/>
			<stop  offset="1" style="stop-color:#D65988"/>
		</linearGradient>
		<path class="st4" d="M297.6,674.9c-70.8,0-137.3-27.6-187.3-77.6S32.7,480.7,32.7,410s27.6-137.3,77.6-187.3
			s116.6-77.6,187.3-77.6c70.8,0,137.3,27.6,187.3,77.6s77.6,116.6,77.6,187.3S535,547.3,485,597.3
			C434.9,647.3,368.4,674.9,297.6,674.9z M297.6,148.1C153.2,148.1,35.7,265.6,35.7,410s117.5,261.9,261.9,261.9
			S559.5,554.4,559.5,410S442.1,148.1,297.6,148.1z"/>
		
			<linearGradient id="SVGID_3_" gradientUnits="userSpaceOnUse" x1="296.0732" y1="149.4627" x2="299.1154" y2="702.1387" gradientTransform="matrix(1 0 0 -1 0 844)">
			<stop  offset="0" style="stop-color:#8F3F4F"/>
			<stop  offset="1" style="stop-color:#D65988"/>
		</linearGradient>
		<path class="st5" d="M297.6,652c-67.6,0-131.1-26.3-178.9-74.1c-47.7-47.8-74-111.3-74-178.9S71,267.9,118.8,220.1
			S230.1,146,297.7,146s131.1,26.3,178.9,74.1s74.1,111.3,74.1,178.9s-26.3,131.1-74.1,178.9C428.7,625.7,365.2,652,297.6,652z
			 M297.6,149c-137.8,0-250,112.1-250,250s112.1,250,250,250c137.8,0,250-112.1,250-250S435.5,149,297.6,149z"/>
		
			<linearGradient id="SVGID_4_" gradientUnits="userSpaceOnUse" x1="295.9126" y1="149.4635" x2="298.9549" y2="702.1396" gradientTransform="matrix(1 0 0 -1 0 844)">
			<stop  offset="0" style="stop-color:#8F3F4F"/>
			<stop  offset="1" style="stop-color:#D65988"/>
		</linearGradient>
		<path class="st6" d="M297.6,629.1c-64.4,0-124.9-25.1-170.4-70.6S56.6,452.4,56.6,388s25.1-124.9,70.6-170.4
			C172.7,172,233.3,147,297.6,147s124.9,25.1,170.4,70.6s70.6,106.1,70.6,170.4c0,64.4-25.1,124.9-70.6,170.4S362,629.1,297.6,629.1
			z M297.6,150c-131.3,0-238,106.8-238,238c0,131.3,106.8,238,238,238s238-106.8,238-238C535.7,256.8,428.9,150,297.6,150z"/>
		
			<linearGradient id="SVGID_5_" gradientUnits="userSpaceOnUse" x1="295.8526" y1="149.4639" x2="298.8949" y2="702.1399" gradientTransform="matrix(1 0 0 -1 0 844)">
			<stop  offset="0" style="stop-color:#8F3F4F"/>
			<stop  offset="1" style="stop-color:#D65988"/>
		</linearGradient>
		<path class="st7" d="M297.6,606.2c-61.2,0-118.7-23.8-162-67.1s-67.1-100.8-67.1-162s23.8-118.7,67.1-162s100.8-67.1,162-67.1
			s118.7,23.8,162,67.1s67.1,100.8,67.1,162s-23.8,118.7-67.1,162C416.4,582.3,358.8,606.2,297.6,606.2z M297.6,150.9
			C173,150.9,71.5,252.4,71.5,377c0,124.7,101.4,226.1,226.1,226.1S523.8,501.7,523.8,377C523.8,252.4,422.3,150.9,297.6,150.9z"/>
		
			<linearGradient id="SVGID_6_" gradientUnits="userSpaceOnUse" x1="295.7921" y1="149.4642" x2="298.8343" y2="702.1402" gradientTransform="matrix(1 0 0 -1 0 844)">
			<stop  offset="0" style="stop-color:#8F3F4F"/>
			<stop  offset="1" style="stop-color:#D65988"/>
		</linearGradient>
		<path class="st8" d="M297.6,583.3c-58,0-112.6-22.6-153.6-63.6s-63.6-95.6-63.6-153.6S103,253.5,144,212.5s95.6-63.6,153.6-63.6
			s112.6,22.6,153.6,63.6s63.6,95.6,63.6,153.6s-22.6,112.6-63.6,153.6S355.6,583.3,297.6,583.3z M297.6,151.9
			c-118.1,0-214.2,96.1-214.2,214.2s96.1,214.2,214.2,214.2s214.2-96.1,214.2-214.2S415.7,151.9,297.6,151.9z"/>
		
			<linearGradient id="SVGID_7_" gradientUnits="userSpaceOnUse" x1="295.731" y1="149.4646" x2="298.7733" y2="702.1406" gradientTransform="matrix(1 0 0 -1 0 844)">
			<stop  offset="0" style="stop-color:#8F3F4F"/>
			<stop  offset="1" style="stop-color:#D65988"/>
		</linearGradient>
		<path class="st9" d="M297.6,560.3c-113.2,0-205.3-92.1-205.3-205.3s92.1-205.3,205.3-205.3S502.9,241.8,502.9,355
			C502.9,468.3,410.8,560.3,297.6,560.3z M297.6,152.8c-111.5,0-202.3,90.7-202.3,202.3c0,111.5,90.7,202.3,202.3,202.3
			c111.5,0,202.3-90.7,202.3-202.3C499.9,243.6,409.2,152.8,297.6,152.8z"/>
		
			<linearGradient id="SVGID_8_" gradientUnits="userSpaceOnUse" x1="295.721" y1="149.4647" x2="298.7632" y2="702.1406" gradientTransform="matrix(1 0 0 -1 0 844)">
			<stop  offset="0" style="stop-color:#8F3F4F"/>
			<stop  offset="1" style="stop-color:#D65988"/>
		</linearGradient>
		<path class="st10" d="M297.6,537.4c-106.6,0-193.3-86.7-193.3-193.3S191,150.8,297.6,150.8S491,237.5,491,344.1
			S404.2,537.4,297.6,537.4z M297.6,153.8c-104.9,0-190.3,85.4-190.3,190.3s85.4,190.3,190.3,190.3S487.9,449,487.9,344.1
			S402.6,153.8,297.6,153.8z"/>
		
			<linearGradient id="SVGID_9_" gradientUnits="userSpaceOnUse" x1="295.6104" y1="149.4652" x2="298.6527" y2="702.1413" gradientTransform="matrix(1 0 0 -1 0 844)">
			<stop  offset="0" style="stop-color:#8F3F4F"/>
			<stop  offset="1" style="stop-color:#D65988"/>
		</linearGradient>
		<path class="st11" d="M297.6,514.5c-100,0-181.4-81.4-181.4-181.4s81.4-181.4,181.4-181.4S479,233.1,479,333.1
			S397.7,514.5,297.6,514.5z M297.6,154.8c-98.4,0-178.4,80-178.4,178.4s80,178.4,178.4,178.4S476,431.5,476,333.1
			S396,154.8,297.6,154.8z"/>
		<g>
			
				<linearGradient id="SVGID_10_" gradientUnits="userSpaceOnUse" x1="297.6" y1="353.2676" x2="297.6" y2="686.6792" gradientTransform="matrix(1 0 0 -1 0 844)">
				<stop  offset="0" style="stop-color:#D65988"/>
				<stop  offset="1" style="stop-color:#8F3F4F"/>
			</linearGradient>
			<path class="st12" d="M297.6,491.6c-93.4,0-169.5-76-169.5-169.5c0-93.4,76-169.5,169.5-169.5c93.4,0,169.5,76,169.5,169.5
				S391.1,491.6,297.6,491.6z M297.6,155.7c-91.8,0-166.5,74.7-166.5,166.5s74.7,166.5,166.5,166.5S464.1,414,464.1,322.2
				S389.4,155.7,297.6,155.7z"/>
		</g>
		<g>
			
				<linearGradient id="SVGID_11_" gradientUnits="userSpaceOnUse" x1="297.6" y1="353.4" x2="297.6" y2="686.8116" gradientTransform="matrix(1 0 0 -1 0 844)">
				<stop  offset="0" style="stop-color:#D65988"/>
				<stop  offset="1" style="stop-color:#8F3F4F"/>
			</linearGradient>
			<path class="st13" d="M297.6,490.6c-89.5,0-162.3-72.8-162.3-162.3S208.1,166,297.6,166s162.3,72.8,162.3,162.3
				S387.1,490.6,297.6,490.6z M297.6,169c-87.8,0-159.3,71.5-159.3,159.3s71.5,159.3,159.3,159.3s159.3-71.5,159.3-159.3
				S385.5,169,297.6,169z"/>
		</g>
		<g>
			
				<linearGradient id="SVGID_12_" gradientUnits="userSpaceOnUse" x1="297.6" y1="353.2676" x2="297.6" y2="686.6792" gradientTransform="matrix(1 0 0 -1 0 844)">
				<stop  offset="0" style="stop-color:#D65988"/>
				<stop  offset="1" style="stop-color:#8F3F4F"/>
			</linearGradient>
			<path class="st14" d="M297.6,489.5c-85.5,0-155.1-69.6-155.1-155.1s69.6-155.1,155.1-155.1s155.1,69.6,155.1,155.1
				S383.2,489.5,297.6,489.5z M297.6,182.2c-83.9,0-152.1,68.3-152.1,152.1s68.3,152.1,152.1,152.1c83.9,0,152.1-68.3,152.1-152.1
				S381.5,182.2,297.6,182.2z"/>
		</g>
		<g>
			
				<linearGradient id="SVGID_13_" gradientUnits="userSpaceOnUse" x1="297.6" y1="353.2676" x2="297.6" y2="686.6792" gradientTransform="matrix(1 0 0 -1 0 844)">
				<stop  offset="0" style="stop-color:#D65988"/>
				<stop  offset="1" style="stop-color:#8F3F4F"/>
			</linearGradient>
			<path class="st15" d="M297.6,488.5c-81.6,0-148-66.4-148-148s66.4-148,148-148s148,66.4,148,148S379.2,488.5,297.6,488.5z
				 M297.6,195.5c-79.9,0-145,65-145,145s65,145,145,145s145-65,145-145S377.6,195.5,297.6,195.5z"/>
		</g>
		<g>
			
				<linearGradient id="SVGID_14_" gradientUnits="userSpaceOnUse" x1="297.6" y1="353.2676" x2="297.6" y2="686.6792" gradientTransform="matrix(1 0 0 -1 0 844)">
				<stop  offset="0" style="stop-color:#D65988"/>
				<stop  offset="1" style="stop-color:#8F3F4F"/>
			</linearGradient>
			<path class="st16" d="M297.6,487.4c-77.7,0-140.8-63.2-140.8-140.8S220,205.7,297.6,205.7s140.8,63.2,140.8,140.8
				S375.3,487.4,297.6,487.4z M297.6,208.7c-76,0-137.8,61.8-137.8,137.8s61.8,137.8,137.8,137.8s137.8-61.8,137.8-137.8
				S373.6,208.7,297.6,208.7z"/>
		</g>
		<g>
			
				<linearGradient id="SVGID_15_" gradientUnits="userSpaceOnUse" x1="297.6" y1="353.2676" x2="297.6" y2="686.6792" gradientTransform="matrix(1 0 0 -1 0 844)">
				<stop  offset="0" style="stop-color:#D65988"/>
				<stop  offset="1" style="stop-color:#8F3F4F"/>
			</linearGradient>
			<path class="st17" d="M297.6,486.3c-73.7,0-133.7-60-133.7-133.7s60-133.7,133.7-133.7s133.7,60,133.7,133.7
				C431.3,426.4,371.3,486.3,297.6,486.3z M297.6,222c-72,0-130.6,58.6-130.6,130.7s58.6,130.7,130.7,130.7s130.7-58.6,130.7-130.7
				C428.3,280.6,369.7,222,297.6,222z"/>
		</g>
		<g>
			
				<linearGradient id="SVGID_16_" gradientUnits="userSpaceOnUse" x1="297.65" y1="353.2676" x2="297.65" y2="686.6792" gradientTransform="matrix(1 0 0 -1 0 844)">
				<stop  offset="0" style="stop-color:#D65988"/>
				<stop  offset="1" style="stop-color:#8F3F4F"/>
			</linearGradient>
			<path class="st18" d="M297.6,485.3c-69.8,0-126.5-56.8-126.5-126.5s56.8-126.5,126.5-126.5S424.2,289,424.2,358.8
				S367.4,485.3,297.6,485.3z M297.6,235.2c-68.1,0-123.5,55.4-123.5,123.5s55.4,123.5,123.5,123.5s123.5-55.4,123.5-123.5
				C421.2,290.6,365.7,235.2,297.6,235.2z"/>
		</g>
		<g>
			
				<linearGradient id="SVGID_17_" gradientUnits="userSpaceOnUse" x1="297.6" y1="353.2676" x2="297.6" y2="686.6792" gradientTransform="matrix(1 0 0 -1 0 844)">
				<stop  offset="0" style="stop-color:#D65988"/>
				<stop  offset="1" style="stop-color:#8F3F4F"/>
			</linearGradient>
			<path class="st19" d="M297.6,484.2c-65.8,0-119.4-53.5-119.4-119.4s53.5-119.4,119.4-119.4S417,299,417,364.9
				S363.5,484.2,297.6,484.2z M297.6,248.5c-64.2,0-116.4,52.2-116.4,116.4s52.2,116.4,116.4,116.4S414,429,414,364.9
				S361.8,248.5,297.6,248.5z"/>
		</g>
		<g>
			
				<linearGradient id="SVGID_18_" gradientUnits="userSpaceOnUse" x1="297.6001" y1="353.2676" x2="297.6001" y2="686.6792" gradientTransform="matrix(1 0 0 -1 0 844)">
				<stop  offset="0" style="stop-color:#D65988"/>
				<stop  offset="1" style="stop-color:#8F3F4F"/>
			</linearGradient>
			<path class="st20" d="M297.6,483.2c-61.9,0-112.2-50.3-112.2-112.2s50.3-112.2,112.2-112.2S409.8,309.1,409.8,371
				C409.9,432.8,359.5,483.2,297.6,483.2z M297.6,261.7c-60.2,0-109.2,49-109.2,109.2s49,109.2,109.2,109.2s109.2-49,109.2-109.2
				S357.9,261.7,297.6,261.7z"/>
		</g>
		<g>
			
				<linearGradient id="SVGID_19_" gradientUnits="userSpaceOnUse" x1="297.6" y1="353.2676" x2="297.6" y2="686.6792" gradientTransform="matrix(1 0 0 -1 0 844)">
				<stop  offset="0" style="stop-color:#D65988"/>
				<stop  offset="1" style="stop-color:#8F3F4F"/>
			</linearGradient>
			<path class="st21" d="M297.6,482.1c-57.9,0-105.1-47.1-105.1-105.1c0-57.9,47.1-105.1,105.1-105.1S402.7,319.1,402.7,377
				C402.7,435,355.6,482.1,297.6,482.1z M297.6,275c-56.3,0-102.1,45.8-102.1,102.1s45.8,102.1,102.1,102.1S399.7,433.3,399.7,377
				C399.7,320.8,353.9,275,297.6,275z"/>
		</g>
	</g>
</g>
<g id="Layer_3">
	<circle class="st22" cx="297.6" cy="420.9" r="236.4"/>
	<circle class="st22" cx="297.6" cy="410" r="225.5"/>
	<circle class="st22" cx="297.6" cy="399.1" r="214.6"/>
	<circle class="st22" cx="297.6" cy="388.2" r="203.7"/>
	<circle class="st22" cx="297.6" cy="377.3" r="192.8"/>
	<circle class="st22" cx="297.6" cy="366.4" r="181.9"/>
	<g>
		<circle class="st22" cx="297.6" cy="420.9" r="105.6"/>
		<circle class="st22" cx="297.6" cy="410" r="116.5"/>
		<circle class="st22" cx="297.6" cy="399.1" r="127.4"/>
		<circle class="st22" cx="297.6" cy="388.2" r="138.3"/>
		<circle class="st22" cx="297.6" cy="377.3" r="149.2"/>
		<circle class="st22" cx="297.6" cy="366.4" r="160.1"/>
		<circle class="st22" cx="297.6" cy="355.5" r="171"/>
	</g>
</g>
</svg>
